<svg xmlns="http://www.w3.org/2000/svg" viewBox="0 0 512 640"><path d="M348.158 205.79c-21.63 0-40.589 14.21-46.278 35.21H76v26h225.881c5.688 20 24.647 35.206 46.277 35.206 21.631 0 40.591-15.206 46.279-35.206H436v-26h-41.562c-5.689-21-24.649-35.21-46.28-35.21zm0 70.476c-12.355 0-22.408-10.052-22.408-22.406 0-12.355 10.053-22.408 22.408-22.408 12.354 0 22.405 10.053 22.405 22.408 0 12.354-10.05 22.406-22.405 22.406zM217.133 133c-5.688-21-24.649-35.21-46.28-35.21-21.63 0-40.589 14.21-46.276 35.21H76v25h48.576c5.688 21 24.647 35.207 46.276 35.207 21.631 0 40.591-14.207 46.279-35.207H436v-25H217.133zm-46.28 34.907c-12.355 0-22.407-10.052-22.407-22.407 0-12.354 10.052-22.406 22.407-22.406 12.354 0 22.406 10.052 22.406 22.406 0 12.355-10.052 22.407-22.406 22.407zm41.948 144.884c-21.629 0-40.588 15.209-46.277 35.209H76v26h90.524c5.688 21 24.647 35.208 46.276 35.208 21.63 0 40.59-14.208 46.278-35.208H436v-26H259.079c-5.688-20-24.647-35.209-46.278-35.209zm0 70.882c-12.355 0-22.408-10.052-22.408-22.406 0-12.355 10.053-22.407 22.408-22.407 12.354 0 22.405 10.052 22.405 22.407 0 12.354-10.051 22.406-22.405 22.406z"/><text y="527" font-size="5" font-weight="bold" font-family="'Helvetica Neue', Helvetica, Arial-Unicode, Arial, Sans-serif">Created by Leonides Delgado</text><text y="532" font-size="5" font-weight="bold" font-family="'Helvetica Neue', Helvetica, Arial-Unicode, Arial, Sans-serif">from the Noun Project</text></svg>